/* XPM */
static char *_87ef5247a204b3f9bc77aa8fa40b7bdST1VnTkf6Q8UK7pJ[] = {
/* columns rows colors chars-per-pixel */
"64 64 2 1 ",
"  c None",
". c #142B42",
/* pixels */
"                                                                ",
"                                                                ",
"                                                                ",
"                                 .............................. ",
"                            ................................... ",
"                         .....................................  ",
"                      ........................................  ",
"                    .........................................   ",
"                  ...............                               ",
"                 ............                                   ",
"               ...........      ............................    ",
"              ..........     ..............................     ",
"             .........    .................................     ",
"            .........   ..................................      ",
"           ........   ....................................      ",
"          ........   ...........                                ",
"         ........   ..........                                  ",
"        ........   .........                                    ",
"       ........  ..........                                     ",
"       .......  .........                                       ",
"      .......   ........                                        ",
"     .......   ........                                         ",
"     .......  .........                                         ",
"    .......  .........                                          ",
"    ......   ........                                           ",
"   .......  .........                                           ",
"   ......   ....................................                ",
"   ......  ....................................                 ",
"  ......   ....................................                 ",
"  ......  ....................................                  ",
"  ......  ....................................                  ",
" ......                                                         ",
" ......                                                         ",
" ......  ....................................                   ",
" ......  ...................................                    ",
" ......  ...................................                    ",
" ......  ..................................                     ",
" ......  ..................................                     ",
" ......  .......                                                ",
" ......  .......                                                ",
" ......  .......                                                ",
" ......  .......                                                ",
" ......   ......                                                ",
" ......   ......                                                ",
"  ......  .......                                               ",
"  ......   ......                                               ",
"  .......  .......                                              ",
"   ......   .......                                             ",
"   .......   .......                                            ",
"    .......   ................................                  ",
"    ........   ...............................                  ",
"     ........   ..............................                  ",
"      ........    ...........................                   ",
"       .........     ........................                   ",
"        ..........                                              ",
"         .............                                          ",
"          .................................                     ",
"            ...............................                     ",
"              ............................                      ",
"                 .........................                      ",
"                     ....................                       ",
"                                                                ",
"                                                                ",
"                                                                "
};
