/* XPM */
static char *d1d68a93d158423481f1cbeb44188f4dHwn2KRdX5sGZXwu2[] = {
/* columns rows colors chars-per-pixel */
"128 128 2 1 ",
"  c None",
". c #142B42",
/* pixels */
"                                                                                                                                ",
"                                                                                                                                ",
"                                                                                                                                ",
"                                                                                                                                ",
"                                                                                                                                ",
"                                                                                                                                ",
"                                                                       .......................................................  ",
"                                                              ................................................................  ",
"                                                          ....................................................................  ",
"                                                      .......................................................................   ",
"                                                   ..........................................................................   ",
"                                                ............................................................................    ",
"                                             ...............................................................................    ",
"                                           ................................................................................     ",
"                                         ..................................................................................     ",
"                                       ...................................................................................      ",
"                                     ...................................                                                        ",
"                                    .............................                                                               ",
"                                  ..........................                                                                    ",
"                                 ........................               ................................................        ",
"                               .......................            ......................................................        ",
"                              ......................         ..........................................................         ",
"                             ....................         .............................................................         ",
"                           ....................         ...............................................................         ",
"                          ...................        .................................................................          ",
"                         ...................       ...................................................................          ",
"                        ..................       ....................................................................           ",
"                       .................       ......................................................................           ",
"                      .................       ......................................................................            ",
"                     .................      ........................................................................            ",
"                    ................       ......................                                                               ",
"                   ................      .....................                                                                  ",
"                  ................      ....................                                                                    ",
"                 ................      ...................                                                                      ",
"                ................      ...................                                                                       ",
"                ...............     ...................                                                                         ",
"               ...............     ...................                                                                          ",
"              ...............     ..................                                                                            ",
"              ..............     ..................                                                                             ",
"             ..............      .................                                                                              ",
"            ..............      .................                                                                               ",
"            .............      .................                                                                                ",
"           ..............     .................                                                                                 ",
"          ..............     ..................                                                                                 ",
"          .............      .................                                                                                  ",
"         ..............     .................                                                                                   ",
"         .............     .................                                                                                    ",
"        .............      ................                                                                                     ",
"        .............     .................                                                                                     ",
"       .............     .................                                                                                      ",
"       .............     ................                                                                                       ",
"      .............     .................                                                                                       ",
"      .............     .......................................................................                                 ",
"      ............     ........................................................................                                 ",
"     .............     ........................................................................                                 ",
"     ............     ........................................................................                                  ",
"     ............     ........................................................................                                  ",
"    .............     .......................................................................                                   ",
"    ............     ........................................................................                                   ",
"    ............     .......................................................................                                    ",
"   .............    ........................................................................                                    ",
"   ............     .......................................................................                                     ",
"   ............                                                                                                                 ",
"   ............                                                                                                                 ",
"  ............                                                                                                                  ",
"  ............      .....................................................................                                       ",
"  ............     ......................................................................                                       ",
"  ............     ......................................................................                                       ",
"  ............     .....................................................................                                        ",
"  ............    ......................................................................                                        ",
"  ...........     .....................................................................                                         ",
"  ...........     .....................................................................                                         ",
" ............     ....................................................................                                          ",
" ............     ....................................................................                                          ",
" ............     ...................................................................                                           ",
" ............     ...................................................................                                           ",
" ............     ..............                                                                                                ",
" ............     ..............                                                                                                ",
" ............     ..............                                                                                                ",
" ............     ..............                                                                                                ",
"  ...........      .............                                                                                                ",
"  ............     .............                                                                                                ",
"  ............     .............                                                                                                ",
"  ............     .............                                                                                                ",
"  ............     .............                                                                                                ",
"  ............      ............                                                                                                ",
"  .............     ............                                                                                                ",
"   ............     .............                                                                                               ",
"   ............      ............                                                                                               ",
"   .............     ............                                                                                               ",
"    ............     .............                                                                                              ",
"    ............      ............                                                                                              ",
"    .............      ............                                                                                             ",
"     ............      .............                                                                                            ",
"     .............      ............                                                                                            ",
"     .............       .............                                                                                          ",
"      .............      ..............                                                                                         ",
"      ..............      ...............                                                                                       ",
"       ..............      ..................................................................                                   ",
"       ...............      .................................................................                                   ",
"        ..............       ...............................................................                                    ",
"         ...............       .............................................................                                    ",
"         ................       ...........................................................                                     ",
"          ................        .........................................................                                     ",
"           ................         .......................................................                                     ",
"            .................         ....................................................                                      ",
"             ..................          .................................................                                      ",
"              ...................           .............................................                                       ",
"               ....................               .......................................                                       ",
"                ......................                                                                                          ",
"                 .........................                                                                                      ",
"                  ...............................                                                                               ",
"                    ...................................................................                                         ",
"                     .................................................................                                          ",
"                       ...............................................................                                          ",
"                         ............................................................                                           ",
"                           ..........................................................                                           ",
"                             .......................................................                                            ",
"                                ....................................................                                            ",
"                                   .................................................                                            ",
"                                       ............................................                                             ",
"                                               ...................................                                              ",
"                                                                                                                                ",
"                                                                                                                                ",
"                                                                                                                                ",
"                                                                                                                                ",
"                                                                                                                                ",
"                                                                                                                                "
};
