/* XPM */
static char *_924d821c2204d1ec85a554913766023OUFPLw3URiqaJbKM[] = {
/* columns rows colors chars-per-pixel */
"16 16 2 1 ",
"  c None",
". c #142B42",
/* pixels */
"        ........",
"      ..........",
"    ........... ",
"   .. ........  ",
"  .. ..         ",
" .. ..          ",
" . ........     ",
".. .........    ",
".. ........     ",
". ........      ",
"....            ",
".. ..           ",
" .. .......     ",
"  .. ......     ",
"   .......      ",
"     .....      "
};
