/* XPM */
static char *fd9cdc044eee4249b2ded5e5bc50ec1dNzTpj2toOWRKgAe1[] = {
/* columns rows colors chars-per-pixel */
"32 32 2 1 ",
"  c None",
". c #142B42",
/* pixels */
"                                ",
"                ............... ",
"             .................. ",
"           .................... ",
"         ......                 ",
"       .....    ..............  ",
"      ....   ................   ",
"     ....  ......               ",
"    ....  ....                  ",
"   ....  ....                   ",
"   ...  ....                    ",
"  ...  ....                     ",
"  ... ....                      ",
" ...  ..................        ",
" ... ..................         ",
" ...                            ",
" ..                             ",
"...  .................          ",
"...  ................           ",
"...  ...                        ",
"...  ...                        ",
" ... ...                        ",
" ... ...                        ",
" ...  ...                       ",
"  ...  ....           .         ",
"  ....  ...............         ",
"   ....   ............          ",
"    .....                       ",
"     ................           ",
"        .............           ",
"           ..........           ",
"                                "
};
